# xmcd
#
# Track frame offsets:
#	150
#	13437
#	26175
#	37725
#	48025
#	58300
#	68525
#	80837
#	91325
#	101900
#
# Disc length: 1529 seconds
#
# Revision: 1
# Processed by: cddbd v1.5.2PL0 Copyright (c) Steve Scherf et al.
# Submitted via: audiograbber 1.83.01
#
DISCID=8205f70a
DTITLE=David Houston - Pure Country
DYEAR=1998
DGENRE=Oldies
TTITLE0=Almost Persuaded
TTITLE1=Mountain Of Love
TTITLE2=A Loser's Cathedral
TTITLE3=With One Exception
TTITLE4=You Mean The World To Me
TTITLE5=Have A Little Faith
TTITLE6=Already It's Heaven
TTITLE7=Baby, Baby (I Know You're A Lady)
TTITLE8=I Do My Swinging At Home
TTITLE9=David Houston and Tammy Wynette_My Elusive Dreams 
EXTD=YEAR: 1998
EXTT0=
EXTT1=
EXTT2=
EXTT3=
EXTT4=
EXTT5=
EXTT6=
EXTT7=
EXTT8=
EXTT9=
PLAYORDER=
